<svg width="393" height="327" viewBox="0 0 393 327" fill="none" xmlns="http://www.w3.org/2000/svg">
<circle cx="197.501" cy="163.5" r="162.5" stroke="#DCDCDC" stroke-width="1.5" stroke-dasharray="5 5"/>
<circle cx="195" cy="164" r="110" stroke="#DCDCDC" stroke-width="1.5" stroke-dasharray="5 5"/>
<circle cx="35.5" cy="169.499" r="19.5" fill="#403778"/>
<circle cx="114.501" cy="20.5" r="19.5" fill="#403778"/>
<circle cx="330.874" cy="76.125" r="19.5" fill="#403778"/>
<circle cx="358.377" cy="170.375" r="19.5" fill="#403778"/>
<circle cx="108.501" cy="229.5" r="19.5" fill="#403778"/>
<circle cx="271.501" cy="237.5" r="19.5" fill="#403778"/>
<circle cx="214.499" cy="55.5" r="19.5" fill="#403778"/>
<circle cx="198" cy="164" r="49" fill="#403778"/>
<path fill-rule="evenodd" clip-rule="evenodd" d="M192.405 171.796C187.292 164.454 182.965 154.621 173.001 164.454C180.081 169.698 184.014 177.302 187.03 185.693C187.161 186.218 187.816 186.48 188.341 186.349C190.569 185.824 192.798 185.3 194.896 184.776C195.289 184.644 195.552 184.513 195.683 184.12C203.156 168.911 212.333 155.67 222.691 143.87C223.609 142.952 222.298 141.51 221.249 142.165C210.105 149.245 200.403 159.078 192.405 171.796Z" fill="white"/>
<path d="M114.857 19.8571C116.751 19.8571 118.286 18.3221 118.286 16.4286C118.286 14.535 116.751 13 114.857 13C112.964 13 111.429 14.535 111.429 16.4286C111.429 18.3221 112.964 19.8571 114.857 19.8571Z" fill="white"/>
<path d="M121.714 25.5714C121.714 23.6778 120.179 22.1429 118.286 22.1429H111.429C109.535 22.1429 108 23.6778 108 25.5714V29H121.714V25.5714Z" fill="white"/>
<path d="M34.8571 166.857C36.7507 166.857 38.2857 165.322 38.2857 163.429C38.2857 161.535 36.7507 160 34.8571 160C32.9636 160 31.4286 161.535 31.4286 163.429C31.4286 165.322 32.9636 166.857 34.8571 166.857Z" fill="white"/>
<path d="M41.7143 172.571C41.7143 170.678 40.1793 169.143 38.2857 169.143H31.4286C29.535 169.143 28 170.678 28 172.571V176H41.7143V172.571Z" fill="white"/>
<path d="M108.857 227.857C110.751 227.857 112.286 226.322 112.286 224.429C112.286 222.535 110.751 221 108.857 221C106.964 221 105.429 222.535 105.429 224.429C105.429 226.322 106.964 227.857 108.857 227.857Z" fill="white"/>
<path d="M115.714 233.571C115.714 231.678 114.179 230.143 112.286 230.143H105.429C103.535 230.143 102 231.678 102 233.571V237H115.714V233.571Z" fill="white"/>
<path d="M271.857 235.857C273.751 235.857 275.286 234.322 275.286 232.429C275.286 230.535 273.751 229 271.857 229C269.964 229 268.429 230.535 268.429 232.429C268.429 234.322 269.964 235.857 271.857 235.857Z" fill="white"/>
<path d="M278.714 241.571C278.714 239.678 277.179 238.143 275.286 238.143H268.429C266.535 238.143 265 239.678 265 241.571V245H278.714V241.571Z" fill="white"/>
<path d="M358.857 168.857C360.751 168.857 362.286 167.322 362.286 165.429C362.286 163.535 360.751 162 358.857 162C356.964 162 355.429 163.535 355.429 165.429C355.429 167.322 356.964 168.857 358.857 168.857Z" fill="white"/>
<path d="M365.714 174.571C365.714 172.678 364.179 171.143 362.286 171.143H355.429C353.535 171.143 352 172.678 352 174.571V178H365.714V174.571Z" fill="white"/>
<path d="M330.857 73.8571C332.751 73.8571 334.286 72.3221 334.286 70.4286C334.286 68.535 332.751 67 330.857 67C328.964 67 327.429 68.535 327.429 70.4286C327.429 72.3221 328.964 73.8571 330.857 73.8571Z" fill="white"/>
<path d="M337.714 79.5714C337.714 77.6778 336.179 76.1429 334.286 76.1429H327.429C325.535 76.1429 324 77.6778 324 79.5714V83H337.714V79.5714Z" fill="white"/>
<path d="M214.857 52.8571C216.751 52.8571 218.286 51.3221 218.286 49.4286C218.286 47.535 216.751 46 214.857 46C212.964 46 211.429 47.535 211.429 49.4286C211.429 51.3221 212.964 52.8571 214.857 52.8571Z" fill="white"/>
<path d="M221.714 58.5714C221.714 56.6778 220.179 55.1429 218.286 55.1429H211.429C209.535 55.1429 208 56.6778 208 58.5714V62H221.714V58.5714Z" fill="white"/>
</svg>
