<svg width="2000" height="330" viewBox="0 0 2000 330" fill="none" xmlns="http://www.w3.org/2000/svg">
<path d="M120.423 330C96.5954 330 75.6111 323.811 57.4699 311.432C39.464 299.053 25.3842 280.641 15.2305 256.197C5.07684 231.752 0 201.432 0 165.235C0 128.882 5.00915 98.4829 15.0275 74.0385C25.1811 49.594 39.3286 31.1823 57.4699 18.8034C75.6111 6.26781 96.5954 0 120.423 0C154.81 0 181.006 9.40171 199.012 28.2051C217.018 47.0085 227.713 71.3746 231.098 101.303L162.053 115.171C158.939 101.695 153.998 90.5698 147.228 81.7949C140.595 72.8632 131.659 68.3974 120.423 68.3974C110.404 68.3974 101.537 71.9231 93.8201 78.9744C86.2386 85.869 80.3495 96.4459 76.1526 110.705C71.9558 124.964 69.8574 143.141 69.8574 165.235C69.8574 186.859 72.0235 204.801 76.3557 219.06C80.688 233.162 86.6448 243.661 94.2262 250.556C101.943 257.45 110.675 260.897 120.423 260.897C134.367 260.897 144.792 256.667 151.696 248.205C158.601 239.587 162.053 229.167 162.053 216.944H230.692C230.692 241.232 226.427 261.838 217.898 278.761C209.504 295.527 197.117 308.298 180.736 317.073C164.354 325.691 144.25 330 120.423 330Z" fill="#403778"/>
<path d="M369.164 330C343.306 330 320.697 323.732 301.337 311.197C282.113 298.504 267.153 279.858 256.458 255.256C245.763 230.499 240.415 200.021 240.415 163.825C240.415 126.688 245.763 96.0541 256.458 71.9231C267.153 47.6353 282.113 29.6154 301.337 17.8633C320.697 5.95442 343.306 0 369.164 0C395.293 0 418.037 6.18946 437.396 18.5684C456.892 30.9473 471.987 49.2806 482.682 73.5684C493.377 97.8561 498.725 127.942 498.725 163.825C498.725 200.648 493.377 231.439 482.682 256.197C471.987 280.798 456.892 299.288 437.396 311.667C418.037 323.889 395.293 330 369.164 330ZM369.164 262.543C388.117 262.543 403.28 253.924 414.652 236.688C426.024 219.295 431.71 194.85 431.71 163.355C431.71 133.739 426.024 110.392 414.652 93.312C403.28 76.0755 388.117 67.4573 369.164 67.4573C350.752 67.4573 335.86 76.0755 324.487 93.312C313.115 110.392 307.429 133.896 307.429 163.825C307.429 195.007 313.115 219.295 324.487 236.688C335.86 253.924 350.752 262.543 369.164 262.543Z" fill="#403778"/>
<path d="M629.577 330C605.75 330 584.766 323.811 566.624 311.432C548.618 299.053 534.539 280.641 524.385 256.197C514.231 231.752 509.154 201.432 509.154 165.235C509.154 128.882 514.164 98.4829 524.182 74.0385C534.336 49.594 548.483 31.1823 566.624 18.8034C584.766 6.26781 605.75 0 629.577 0C663.964 0 690.161 9.40171 708.167 28.2051C726.173 47.0085 736.868 71.3746 740.252 101.303L671.207 115.171C668.093 101.695 663.152 90.5698 656.383 81.7949C649.749 72.8632 640.814 68.3974 629.577 68.3974C619.559 68.3974 610.691 71.9231 602.975 78.9744C595.393 85.869 589.504 96.4459 585.307 110.705C581.11 124.964 579.012 143.141 579.012 165.235C579.012 186.859 581.178 204.801 585.51 219.06C589.842 233.162 595.799 243.661 603.381 250.556C611.097 257.45 619.83 260.897 629.577 260.897C643.522 260.897 653.946 256.667 660.85 248.205C667.755 239.587 671.207 229.167 671.207 216.944H739.846C739.846 241.232 735.582 261.838 727.053 278.761C718.659 295.527 706.271 308.298 689.89 317.073C673.509 325.691 653.404 330 629.577 330Z" fill="#403778"/>
<path d="M879.672 330C853.814 330 831.205 323.732 811.845 311.197C792.621 298.504 777.661 279.858 766.966 255.256C756.271 230.499 750.923 200.021 750.923 163.825C750.923 126.688 756.271 96.0541 766.966 71.9231C777.661 47.6353 792.621 29.6154 811.845 17.8633C831.205 5.95442 853.814 0 879.672 0C905.801 0 928.545 6.18946 947.905 18.5684C967.4 30.9473 982.495 49.2806 993.19 73.5684C1003.89 97.8561 1009.23 127.942 1009.23 163.825C1009.23 200.648 1003.89 231.439 993.19 256.197C982.495 280.798 967.4 299.288 947.905 311.667C928.545 323.889 905.801 330 879.672 330ZM879.672 262.543C898.625 262.543 913.788 253.924 925.16 236.688C936.533 219.295 942.219 194.85 942.219 163.355C942.219 133.739 936.533 110.392 925.16 93.312C913.788 76.0755 898.625 67.4573 879.672 67.4573C861.26 67.4573 846.368 76.0755 834.996 93.312C823.624 110.392 817.938 133.896 817.938 163.825C817.938 195.007 823.624 219.295 834.996 236.688C846.368 253.924 861.26 262.543 879.672 262.543Z" fill="#403778"/>
<path d="M1092.02 7.0513V256.667H1194.98V322.479H1027.04V7.0513H1092.02Z" fill="#403778"/>
<path d="M1277.14 7.0513V256.667H1380.1V322.479H1212.16V7.0513H1277.14Z" fill="#403778"/>
<path d="M1400.06 322.479L1491.85 7.0513H1574.5L1661.21 322.479H1592.77L1577.95 267.009H1483.93L1469.1 322.479H1400.06ZM1500.37 211.303H1563.12L1532.26 95.8974L1500.37 211.303Z" fill="#403778"/>
<path d="M1681.06 322.479V7.0513H1799.05C1821.11 7.0513 1839.39 10.812 1853.88 18.3333C1868.36 25.698 1879.19 35.8048 1886.37 48.6538C1893.68 61.3461 1897.33 75.7621 1897.33 91.9017C1897.33 109.295 1893 124.024 1884.34 136.09C1875.81 148.155 1864.57 156.93 1850.63 162.415C1859.97 165.235 1868.5 169.544 1876.21 175.342C1883.93 181.14 1890.09 188.818 1894.69 198.376C1899.43 207.778 1901.8 219.452 1901.8 233.397C1901.8 242.642 1900.31 252.436 1897.33 262.778C1894.36 273.12 1889.14 282.835 1881.7 291.923C1874.25 300.855 1863.89 308.219 1850.63 314.017C1837.36 319.658 1820.44 322.479 1799.86 322.479H1681.06ZM1746.04 256.667H1797.83C1808.79 256.667 1817.12 254.316 1822.81 249.615C1828.49 244.758 1831.33 237.785 1831.33 228.697C1831.33 219.608 1828.63 212.322 1823.21 206.838C1817.93 201.353 1809.47 198.611 1797.83 198.611H1746.04V256.667ZM1746.04 72.1581V132.329H1796.2C1808.66 132.329 1817.53 129.587 1822.81 124.103C1828.09 118.618 1830.73 111.489 1830.73 102.714C1830.73 94.2521 1828.09 87.0442 1822.81 81.0897C1817.66 75.1353 1808.93 72.1581 1796.61 72.1581H1746.04Z" fill="#403778"/>
<path d="M1912.07 278.761C1912.07 264.815 1916.06 253.219 1924.05 243.974C1932.17 234.729 1942.67 230.107 1955.53 230.107C1968.39 230.107 1979.02 234.729 1987.41 243.974C1995.8 253.219 2000 264.815 2000 278.761C2000 292.707 1995.8 304.224 1987.41 313.312C1979.02 322.244 1968.39 326.709 1955.53 326.709C1942.67 326.709 1932.17 322.165 1924.05 313.077C1916.06 303.989 1912.07 292.55 1912.07 278.761Z" fill="#403778"/>
</svg>
